<svg width="229" height="41" xmlns="http://www.w3.org/2000/svg"><g id="Page-1" stroke="none" stroke-width="1" fill="none" fill-rule="evenodd"><g id="logo-connectria" fill-rule="nonzero"><path d="M15.149 29.747c-2.868-2.639-4.641-6.275-4.641-10.291 0-8.058 4.188-15.907 15.931-14.59 4.58.514 8.634 3.977 11.54 6.843.415.409 1.198-.396 1.283-.886C35.876 4.389 29.13 0 21.356 0 10.186 0 1.132 9.055 1.132 20.224c0 5.512 2.212 10.503 5.787 14.15a414.73 414.73 0 008.23-4.627" id="Fill-1" fill="#006495"/><path d="M38.279 25.485c-1.822 4.705-6.075 8.56-11.84 8.56-2.107 0-4.114-.384-5.955-1.063l-2.202 1.183.054.044-7.06 3.532a20.11 20.11 0 0010.08 2.707c9.274 0 17.086-6.245 19.47-14.757.063-.875-1.986-1.657-2.547-.206" id="Fill-4" fill="#006495"/><path d="M3.5 37.874l.004.004c-1.422.604-2.815.857-1.975-1.021.111-.248.414-1.018-.063-.986 0 0-3.327 5.837.042 4.556a138.152 138.152 0 006.079-2.547l7.938-3.967-.005-.004C75.402 2.07 62.516-.354 38.173 5.396l.07.305c28.45-1.46-32.27 30.92-32.27 30.92L3.5 37.874z" id="Fill-6" fill="#D34727"/><path d="M57.288 23.696c0 1.343.2 2.543.603 3.602.4 1.06.954 1.958 1.658 2.693a7.073 7.073 0 002.499 1.685 8.312 8.312 0 003.13.582c.666 0 1.31-.13 1.931-.391a7.55 7.55 0 001.733-1.013 8.515 8.515 0 001.432-1.41 9.317 9.317 0 001.04-1.597l1.344.863a12.77 12.77 0 01-1.39 1.849 9.086 9.086 0 01-1.858 1.569 9.657 9.657 0 01-2.383 1.089c-.886.273-1.876.411-2.972.411-1.05 0-2.04-.121-2.973-.363a10.898 10.898 0 01-2.568-1.014 9.632 9.632 0 01-3.658-3.588 9.926 9.926 0 01-.972-7.576 9.798 9.798 0 012.596-4.432 9.983 9.983 0 012.13-1.596c.79-.442 1.655-.788 2.596-1.034a11.82 11.82 0 013.013-.37c1.014 0 1.947.137 2.801.411a9.982 9.982 0 012.343 1.089 9.552 9.552 0 011.883 1.568c.549.594 1.019 1.21 1.412 1.85l-1.383.931c-.805-1.543-1.7-2.675-2.686-3.397-.987-.721-2.12-1.082-3.397-1.082a7.936 7.936 0 00-3.095.602 7.354 7.354 0 00-2.508 1.726c-.712.75-1.273 1.659-1.685 2.726-.411 1.07-.616 2.275-.616 3.617" id="Fill-9" fill="#006495"/><path d="M84.645 32.669c1.087 0 2.051-.229 2.891-.685a6.157 6.157 0 002.116-1.904c.57-.812 1.004-1.78 1.301-2.897.297-1.12.445-2.341.445-3.665 0-1.306-.148-2.504-.445-3.595-.297-1.093-.73-2.033-1.301-2.822a6.016 6.016 0 00-2.116-1.843c-.84-.439-1.804-.658-2.891-.658-1.114 0-2.094.22-2.937.658a5.93 5.93 0 00-2.118 1.843c-.566.79-.993 1.73-1.28 2.822-.288 1.091-.432 2.289-.432 3.595 0 1.324.144 2.545.432 3.665.287 1.117.714 2.085 1.28 2.897a6.068 6.068 0 002.118 1.904c.843.456 1.823.685 2.937.685m0 .958c-.986 0-1.93-.12-2.836-.363a10.501 10.501 0 01-4.643-2.603 9.854 9.854 0 01-1.63-2.046 10.108 10.108 0 01-1.041-2.412 9.707 9.707 0 01-.37-2.685c0-.914.124-1.79.37-2.63a9.704 9.704 0 011.041-2.356 9.56 9.56 0 011.63-1.994 10.65 10.65 0 012.123-1.541c.777-.429 1.616-.76 2.52-.993.905-.232 1.85-.35 2.836-.35.987 0 1.932.118 2.837.35.904.233 1.742.564 2.52.993.775.43 1.483.944 2.123 1.541a9.559 9.559 0 012.671 4.35c.246.84.37 1.716.37 2.63 0 .922-.124 1.815-.37 2.678a9.886 9.886 0 01-2.672 4.466 10.507 10.507 0 01-4.642 2.602c-.905.242-1.85.363-2.837.363" id="Fill-11" fill="#006495"/><path id="Fill-13" fill="#006495" d="M98.017 14.094h1.794l12.507 13.944h.123V14.094h1.41v19.534h-.739L99.564 18.107h-.11v15.07h-1.437z"/><path id="Fill-15" fill="#006495" d="M116.964 14.094h1.795l12.506 13.944h.123V14.094h1.411v19.534h-.74l-13.547-15.521h-.11v15.07h-1.438z"/><path id="Fill-17" fill="#006495" d="M149.17 14.094v1.232h-10.054v6.822h6.725v1.233h-6.725v8.561h10.053v1.234h-13.258V14.094z"/><path d="M153.42 23.696c0 1.343.2 2.543.601 3.602.402 1.06.955 1.958 1.658 2.693a7.086 7.086 0 002.5 1.685 8.312 8.312 0 003.13.582c.666 0 1.31-.13 1.932-.391a7.55 7.55 0 001.732-1.013 8.589 8.589 0 001.432-1.41 9.376 9.376 0 001.041-1.597l1.342.863a12.7 12.7 0 01-1.39 1.849 9.054 9.054 0 01-1.856 1.569 9.674 9.674 0 01-2.383 1.089c-.887.273-1.877.411-2.973.411-1.05 0-2.041-.121-2.972-.363a10.898 10.898 0 01-2.569-1.014 9.519 9.519 0 01-2.097-1.57 9.627 9.627 0 01-1.56-2.019 9.847 9.847 0 01-.98-2.363 9.87 9.87 0 01-.343-2.603 9.951 9.951 0 011.35-4.993 9.96 9.96 0 013.727-3.644 10.971 10.971 0 012.595-1.034c.94-.247 1.945-.37 3.013-.37 1.013 0 1.948.137 2.802.411.853.274 1.635.637 2.343 1.089a9.608 9.608 0 011.883 1.568c.547.594 1.018 1.21 1.41 1.85l-1.383.931c-.803-1.543-1.699-2.675-2.685-3.397-.986-.721-2.119-1.082-3.397-1.082a7.93 7.93 0 00-3.095.602 7.345 7.345 0 00-2.508 1.726c-.712.75-1.273 1.659-1.685 2.726-.41 1.07-.616 2.275-.616 3.617" id="Fill-19" fill="#006495"/><path id="Fill-21" fill="#006495" d="M183.193 14.094v1.232h-5.092v17.85h-3.206v-17.85h-5.104v-1.232z"/><path d="M188.8 23.244h1.85c.72 0 1.384-.096 1.992-.288a4.944 4.944 0 001.582-.815 3.754 3.754 0 001.049-1.28c.25-.503.375-1.065.375-1.685 0-.567-.1-1.089-.301-1.57-.2-.478-.48-.89-.835-1.232a3.816 3.816 0 00-1.275-.802 4.43 4.43 0 00-1.616-.287h-2.822v7.96zm-3.205-9.15h6.6c1.152 0 2.158.123 3.022.37.863.246 1.581.59 2.157 1.033a4.382 4.382 0 011.302 1.576 4.54 4.54 0 01.438 1.992c0 .595-.112 1.15-.335 1.665a4.555 4.555 0 01-.953 1.398 6.067 6.067 0 01-1.48 1.082 7.861 7.861 0 01-1.903.705l6.945 9.261h-3.712l-6.63-8.973h-2.247v8.973h-3.204V14.094z" id="Fill-23" fill="#006495"/><path id="Fill-25" fill="#006495" d="M203.786 19.54l3.205-1.175v14.811h-3.205z"/><path d="M214.634 25.573h7.028l-3.467-7.548-3.56 7.548zm4.809-11.918l8.986 19.52h-3.26l-2.918-6.369h-8.178l-3.014 6.37h-1.604l9.192-19.521h.796z" id="Fill-27" fill="#006495"/><path d="M207.189 15.613a1.694 1.694 0 11-3.388 0 1.694 1.694 0 013.388 0" id="Fill-30" fill="#D34727"/></g></g></svg>